PathFileType	4	(X/Y/Z)	C:/Users/beibeiliu/ov580/test_trc/User2\sequence.42_training_dense_right.trc
DataRate	CameraRate	NumFrames	NumMarkers	Units	OrigDataRate	OrigDataStartFrame	OrigNumFrames
120	120	8	19	mm	120	115	200
Frame#	Time	ThumbCMC			ThumbMCP			ThumbIP			ThumbTip			IndexMCP			IndexPIP			IndexTip			MiddleMCP			MiddlePIP			MiddleTip			RingMCP			RingPIP			RingTip			PinkyMCP			PinkyPIP			PinkyTip			BackHand1			BackHand2			BackHand3	
		X0	Y0	Z0	X1	Y1	Z1	X2	Y2	Z2	X3	Y3	Z3	X4	Y4	Z4	X5	Y5	Z5	X6	Y6	Z6	X7	Y7	Z7	X8	Y8	Z8	X9	Y9	Z9	X10	Y10	Z10	X11	Y11	Z11	X12	Y12	Z12	X13	Y13	Z13	X14	Y14	Z14	X15	Y15	Z15	X16	Y16	Z16	X17	Y17	Z17	X18	Y18	Z18	
114	0.95	49.568	66.7561	17.5791	18.0979	57.8889	-1.30434	-2.20749	50.8012	-29.0266	-3.18957	40.9544	-58.9739	59.0548	112.179	-49.3251	34.8574	117.907	-72.2431	8.46571	96.9431	-78.5098	84.0446	100.03	-68.0965	67.7545	115.343	-94.061	39.1862	114.199	-115.568	79.3734	76.5282	-78.01	55.8125	75.3465	-103.494	26.9907	63.9053	-101.334	71.494	39.5313	-77.5	37.794	36.2055	-86.3707	14.8354	27.8701	-74.5655	104.806	49.6204	-27.5333	113.728	41.77	-1.15611	93.384	71.9716	5.80435	
115	0.958333	50.9804	65.4613	21.4291	16.4202	58.7461	-0.590157	-5.03005	52.4266	-28.2165	-2.08799	40.2619	-56.5054	61.5126	109.731	-50.1307	34.54	118.015	-72.4087	4.93047	97.3569	-74.3598	82.6157	101.293	-65.5894	65.1916	113.966	-99.3842	32.6487	112.79	-116.195	81.4464	71.1236	-76.9574	58.1629	77.4987	-100.911	26.3349	63.3914	-100.327	70.4041	42.0165	-76.2839	39.0465	38.703	-85.4684	14.8641	32.6349	-74.5779	103.734	49.673	-26.8344	113.577	38.7423	0.84233	96.9813	72.2112	1.73386	
116	0.966667	53.3135	65.5205	17.0508	17.6203	59.5124	-1.6398	-7.08837	54.8796	-28.5771	-6.13895	43.7571	-53.544	61.3953	110.226	-50.0685	33.2448	118.444	-72.6608	8.2039	93.3624	-76.6279	81.214	103.238	-65.84	63.3744	111.729	-98.9433	32.5205	105.332	-115.205	80.353	75.0484	-79.1335	59.8206	75.9209	-102.448	28.768	64.2307	-99.91	72.9036	43.9477	-76.4726	46.7662	38.6841	-89.4889	16.9504	34.0273	-76.6577	102.885	53.365	-29.5734	116.371	39.7205	3.28042	96.5955	73.445	5.8458	
117	0.975	53.7308	65.4389	17.6497	17.2484	63.4013	3.53536	-2.95727	58.4733	-25.2175	-7.6029	49.4524	-53.9739	61.3226	113.403	-50.8684	38.0621	117.979	-73.167	12.1899	94.1022	-77.665	82.4415	100.822	-66.5112	65.8787	111.012	-94.3487	30.4632	97.2661	-110.095	84.7439	72.2372	-79.3115	63.1038	75.0416	-101.695	27.9991	62.8346	-98.2507	78.1421	41.0356	-80.3514	53.1437	38.8202	-94.0344	21.2588	33.327	-82.3699	103.776	53.1162	-28.5754	116.265	35.4328	0.506787	94.7352	73.5289	0.940336	
118	0.983333	55.6546	69.8354	22.3004	21.2852	71.9486	3.39756	-3.76166	70.2919	-18.7837	-2.37988	60.8002	-49.1546	67.4397	111.014	-49.2081	45.9552	118.714	-75.3677	18.1385	95.1347	-77.4237	85.9833	98.181	-65.6183	68.4753	106.976	-97.2266	34.2136	85.6851	-105.023	89.5345	73.8803	-81.5569	65.4813	73.9182	-103.886	34.1607	63.8163	-95.9348	86.0761	41.8485	-76.0463	56.276	37.909	-97.6243	31.1397	35.1361	-86.5527	108.659	51.2278	-26.9888	117.821	36.403	0.46325	98.3799	73.9643	0.637233	
119	0.991667	56.7936	71.8751	21.5884	23.2137	79.8706	9.71363	0.98068	80.3302	-15.0001	2.79596	68.6623	-42.8963	69.9238	110.279	-49.8891	50.407	114.361	-79.3436	24.4222	91.7198	-77.699	88.6145	98.7741	-70.8062	67.1667	101.298	-100.198	37.4695	77.7866	-98.7797	90.5158	74.1255	-77.506	67.3358	72.1171	-103.429	40.0057	60.9259	-91.3491	90.4495	39.86	-76.6025	60.0635	40.8413	-97.0856	34.334	34.6502	-83.0078	107.164	51.149	-25.4114	117.265	40.9002	0.350388	95.5458	74.2174	2.55621	
120	1	58.8986	74.1794	24.0979	25.431	88.0743	11.7427	4.45012	88.3995	-14.6163	10.0446	75.221	-40.3502	72.4194	110.748	-56.6177	51.5651	114.74	-79.9474	28.8508	89.0467	-76.0373	87.0405	99.7871	-72.4136	67.7474	97.6847	-100.391	35.3416	73.4736	-90.2804	90.3855	72.8732	-79.9208	68.0017	70.466	-102.752	41.3652	54.2912	-84.611	90.5111	40.7578	-77.9316	63.2019	40.2736	-96.9158	36.5829	33.3068	-76.1244	107.22	54.1678	-29.0563	118.074	39.5766	3.79729	98.4133	74.2816	1.69597	
121	1.00833	61.0657	76.2407	23.2433	29.4867	87.0555	15.85	8.38518	91.9942	-17.3901	16.6046	76.8297	-41.699	76.2966	109.861	-54.2378	52.1625	114.086	-79.294	31.0601	86.9934	-68.9533	89.8025	95.4315	-71.8805	64.6997	97.614	-98.5429	37.5602	69.3824	-78.3244	90.6071	71.8317	-82.3836	61.9475	67.0038	-98.7095	41.9365	54.405	-71.3592	88.9148	44.6144	-79.9434	59.3861	43.7786	-91.9025	39.668	32.5504	-66.1186	110.984	53.875	-28.958	119.109	37.7441	-0.290939	100.327	72.1302	-1.063	
